# xmcd
# 
# Track frame offsets:
#     150
#     15828
#     50300
#     85537
#     113650
#     127733
#     182554
#     211558
#     235856
#     271236
#     288166
# 
# Disc length: 4370
# 
# Revision: 0
# Processed by: cddbd v1.5.2PL0 Copyright (c) Steve Scherf et al.
# Submitted via: BonkEnc v1.0rc1
# 
DISCID=7611100b
DTITLE=hendrix - blues
DYEAR=0
DGENRE=Blues
TTITLE0=hear my train comin' (acoustic)
TTITLE1=born under a bad sign
TTITLE2=red house
TTITLE3=catfish blues
TTITLE4=voodoo chile blues
TTITLE5=mannish boy
TTITLE6=once I had a woman
TTITLE7=bleeding heart
TTITLE8=jelly
TTITLE9=electric church (red house)
TTITLE10=hear my train comin' (electric)
EXTD=
EXTT0=
EXTT1=
EXTT2=
EXTT3=
EXTT4=
EXTT5=
EXTT6=
EXTT7=
EXTT8=
EXTT9=
EXTT10=
PLAYORDER=
